<svg width="85px" height="29px" viewBox="0 0 85 29" version="1.1" xmlns="http://www.w3.org/2000/svg" xmlns:xlink="http://www.w3.org/1999/xlink">
    <defs>
        <polygon id="path-1" points="3.61169249e-17 3.86298756 3.61169249e-17 0.0762476963 4.49721894 0.0762476963 4.49721894 3.86298756 0 3.86298756"></polygon>
    </defs>
    <g id="App-Banner" stroke="none" stroke-width="1" fill="none" fill-rule="evenodd">
        <g id="webview-alt" transform="translate(-206.000000, -75.000000)">
            <g id="hero" transform="translate(-78.000000, -78.000000)">
                <g id="host-name-+-logo" transform="translate(117.000000, 148.000000)">
                    <g id="rover-logo----white" transform="translate(167.000000, 5.000000)">
                        <g id="Group-3" transform="translate(71.049688, 4.231200)" fill="#FFFFFF">
                            <path d="M10.9253383,1.91578838 C9.12924981,1.43298981 7.8948111,2.08521267 7.05094721,2.91454253 C6.89535236,1.66953685 6.05863313,0.256319942 4.99566629,0.22194986 C4.41615487,0.20334958 3.97755205,0.193645087 3.32183091,1.87413993 C2.857031,3.06455783 2.33110454,4.77335745 1.80041497,6.8169621 C0.865258182,10.4157119 0.419510699,15.8821724 0.32583625,17.2614235 C0.189293833,19.2722755 4.85833003,19.7376869 4.70789521,17.9738951 C4.46061054,15.0702297 4.96311839,11.1403141 5.79666222,8.51120497 C6.26940064,7.0187347 7.44747591,5.49715094 8.54576913,5.08794479 C8.12145563,5.46520699 7.98967633,6.24480132 7.98729477,6.61478515 C7.97737163,8.03164124 8.4120052,9.12663162 10.1684011,9.53462472 C11.6124166,9.87023846 13.5073395,8.95518557 13.6676975,5.81173828 C13.7538303,4.11426058 12.447945,2.32337712 10.9253383,1.91578838" id="Fill-1"></path>
                        </g>
                        <path d="M2.71453469,8.7985793 C2.52480424,7.64900114 3.56197092,7.06956199 4.09504204,6.98383896 C5.48269404,6.75214417 6.55359939,8.47550052 6.76595461,9.21951172 C6.92591564,9.78075494 6.80048714,10.3411895 6.42261394,10.7625262 C6.1511168,11.0657917 5.76967127,11.2671599 5.34813625,11.3330696 C4.91747194,11.399788 4.31970194,11.1794151 3.82592646,10.771422 C3.2396673,10.287006 2.84512323,9.5898999 2.71453469,8.7985793" id="Fill-4" fill="#FFFFFF"></path>
                        <g id="Group-8" transform="translate(0.000000, 11.509570)">
                            <mask id="mask-2" fill="white">
                                <use xlink:href="#path-1"></use>
                            </mask>
                            <g id="Clip-7"></g>
                            <path d="M0.307776134,2.53279201 C-0.38684372,1.60924768 0.25180962,0.662655184 0.677710822,0.361007169 C1.78235485,-0.430313429 3.51056905,0.620198024 4.03728936,1.17941948 C4.43540577,1.60237367 4.58385595,2.14501661 4.44810739,2.67391152 C4.35046368,3.05359984 4.11032367,3.39163971 3.77253996,3.6285911 C3.42721466,3.86958603 2.80443835,3.93064347 2.18563129,3.78426735 C1.45052502,3.60999082 0.786071519,3.16843635 0.307776134,2.53279201" id="Fill-6" fill="#FFFFFF" mask="url(#mask-2)"></path>
                        </g>
                        <path d="M11.6219031,6.67988613 C11.3424674,5.51615558 10.1659799,5.33500503 9.64441959,5.44418058 C8.28375852,5.71994995 7.98328582,7.74616738 8.0821203,8.53101832 C8.15713925,9.12339679 8.49214448,9.61306937 9.00417854,9.8795386 C9.37173168,10.070798 9.80041136,10.1261945 10.2120232,10.0384497 C10.6319706,9.94827876 11.0916104,9.52411151 11.3825569,8.9584204 C11.7282791,8.28678856 11.8140151,7.48050686 11.6219031,6.67988613" id="Fill-9" fill="#FFFFFF"></path>
                        <path d="M16.3964421,9.11526928 C16.4091437,7.92889491 15.2779057,7.49785365 14.7285606,7.48936221 C13.2988345,7.45984438 12.4895031,9.35383808 12.3914625,10.1342411 C12.3176343,10.7233848 12.5299895,11.2696669 12.9749432,11.638842 C13.2948652,11.9040982 13.7092556,12.0508787 14.1430953,12.0553265 C14.5860643,12.0597744 15.1520803,11.749635 15.585523,11.2664321 C16.0991448,10.6918452 16.3877097,9.93165982 16.3964421,9.11526928" id="Fill-11" fill="#FFFFFF"></path>
                        <path d="M15.4932775,17.1342138 C15.5583733,18.0460319 15.3710244,19.0092029 14.6644968,19.6230121 C13.8404792,20.3387185 12.8299065,20.2194341 11.8213185,20.0318139 C11.4843287,19.9695434 11.1759174,20.0027004 10.884574,20.0920626 C10.5928337,20.1818292 10.3213366,20.3269923 10.0847689,20.5659654 C9.37466893,21.2828849 8.67806445,22.02447 7.57699275,21.9007377 C6.63230975,21.7947969 5.59673078,21.062512 5.27323639,20.2000251 C3.99672356,16.797387 6.65731606,12.2273791 7.97312453,11.209216 C9.32545015,11.2452035 15.2142388,13.2317942 15.4932775,17.1342138" id="Fill-13" fill="#FFFFFF"></path>
                        <path d="M39.8071158,4.5025212 C35.466734,5.09853886 33.6797748,13.1698472 33.6567531,16.3779911 C33.6400823,18.8008797 34.4748169,20.9063505 35.9513802,22.1780436 C37.0119655,23.0922878 38.3194385,23.4796588 39.6340562,23.2807167 C40.9768556,23.076518 42.5820229,21.5387601 43.7243748,19.3645491 C45.0798759,16.782345 45.6863782,13.55924 45.4267889,10.250412 C45.0493126,5.44223968 41.4722188,4.26152627 39.8071158,4.5025212 M42.074355,12.3364738 C41.8937538,15.5555353 40.5823116,19.7199762 39.4086025,20.0818729 C38.6397575,20.3483421 38.1007325,18.4988274 38.0916032,16.7394835 C38.0709631,12.602943 39.9635045,8.28686943 41.0840255,8.36005748 C42.0080684,8.41990186 42.1712048,10.6110957 42.074355,12.3364738" id="Fill-15" fill="#FFFFFF"></path>
                        <path d="M67.6531556,18.5080062 C66.7926208,19.0615667 66.5171544,20.2071013 64.9786707,20.0793255 C63.423516,19.9499322 63.1119294,18.2581155 63.1234403,17.0288796 C63.130188,16.3244951 63.2361671,15.7264557 63.2361671,15.7264557 C63.2361671,15.7264557 65.3378884,15.7753825 67.3832461,15.1494426 C69.700101,14.4406102 70.7162306,13.4495388 71.3310685,11.7189041 C72.0157652,9.79094466 71.9208999,6.89940986 69.700101,5.29897709 C68.1727312,4.19832576 65.4228304,4.06205849 62.5066178,7.14283091 C60.4505431,9.31461575 59.2430953,12.4119667 59.0966297,15.988477 C58.9326995,19.9927938 61.8350197,23.1172364 64.0859849,23.2405643 C66.5556562,23.3760229 67.9405297,22.3473466 69.113445,20.3656081 C69.77512,19.2471652 68.9332407,17.685146 67.6531556,18.5080062 M68.7316025,9.97896923 C68.4557392,11.6772556 66.1968354,13.1147338 63.7783676,12.9226657 C64.7956879,9.98503453 66.4369754,8.59648321 67.202248,8.31545725 C67.8389168,8.08174069 68.8967236,8.96040173 68.7316025,9.97896923" id="Fill-17" fill="#FFFFFF"></path>
                        <path d="M58.7332046,10.5488656 C57.8075741,17.7479826 53.5179988,22.4190789 50.394591,23.2294042 C49.6110598,23.4327942 45.2345578,20.5351941 47.3585068,6.52473553 C47.7066106,4.22760098 49.097438,4.29270196 50.5926569,5.03954363 C52.0565186,5.77101985 52.4435211,7.23275922 52.2065565,8.53558752 C51.9608595,9.88693828 51.4238191,11.7267486 51.2971999,12.9167621 C50.8355754,17.2518404 51.6941255,19.1498776 51.6941255,19.1498776 C51.6941255,19.1498776 54.4956266,16.7322456 55.2680439,9.77048435 C55.5228701,7.47658463 55.1934219,5.85067757 56.0027532,5.590678 C57.4424025,5.12769278 59.1515642,7.29502973 58.7332046,10.5488656" id="Fill-19" fill="#FFFFFF"></path>
                        <g id="Group-23" transform="translate(15.877025, 0.187661)" fill="#FFFFFF">
                            <path d="M10.0055425,4.1460428 C12.3013604,3.63089592 13.4318046,4.47559123 13.5381806,6.2672834 C13.7187818,9.29225498 10.7319164,13.8008011 6.65112402,14.3199915 C7.32669144,11.8748634 8.56509941,7.95505661 10.0055425,4.1460428 M20.2831379,24.0293375 C20.0977736,23.809369 19.8064302,23.6844236 19.3971999,23.7406288 C18.5719915,23.9840499 17.1109082,24.3358378 15.9637932,23.5995093 C14.6309169,22.7467269 9.28909176,16.7254929 9.28909176,16.7254929 C11.9782629,15.9919949 14.8377152,13.8137404 15.8439216,12.6609274 C16.1963916,12.2808347 16.5234583,11.8764808 16.8175802,11.447057 C16.8366326,11.420774 16.8477465,11.4045998 16.8477465,11.4045998 C17.9091257,9.84055888 18.5406344,7.95384355 18.409252,5.74324073 C18.1278317,1.01108695 14.3467181,-1.79512917 3.6666402,1.95363591 C0.753206077,2.97624694 2.70846173,6.41487257 4.11079999,5.84594663 C4.43191282,5.71574467 4.9518854,5.4654496 5.1717822,5.36678724 C3.89010933,9.91859919 -0.169249089,22.2255147 0.0633493306,25.9965193 C0.228470393,28.7663435 3.60392596,28.9559855 4.35371847,28.5431402 C5.3158662,28.0146496 4.5275719,25.6127874 5.92991015,18.8459248 C5.94658103,18.7658627 9.43396962,23.5744394 11.1685346,25.7211543 C12.3914625,27.2338422 14.6531447,28.6147108 16.5349691,28.2362356 C18.8137192,27.8088335 19.8310396,26.7130344 20.3764154,25.5367689 C20.6058384,25.041031 20.5947245,24.4005344 20.2831379,24.0293375" id="Fill-21"></path>
                        </g>
                    </g>
                </g>
            </g>
        </g>
    </g>
</svg>